<svg xmlns="http://www.w3.org/2000/svg" xmlns:xlink="http://www.w3.org/1999/xlink" width="80" zoomAndPan="magnify" viewBox="0 0 60 30.000001" height="40" preserveAspectRatio="xMidYMid meet" version="1.0"><defs><g/></defs><g fill="#000000" fill-opacity="1"><g transform="translate(6.360483, 18.012872)"><g><path d="M 1.046875 -15 L 5.171875 -15 C 5.085938 -14.800781 5.03125 -14.617188 5 -14.453125 C 4.96875 -14.285156 4.953125 -14.117188 4.953125 -13.953125 C 4.953125 -13.523438 5.082031 -13.140625 5.34375 -12.796875 C 5.613281 -12.453125 5.953125 -12.113281 6.359375 -11.78125 C 6.773438 -11.445312 7.210938 -11.085938 7.671875 -10.703125 C 8.140625 -10.328125 8.582031 -9.890625 9 -9.390625 C 9.425781 -8.898438 9.769531 -8.316406 10.03125 -7.640625 C 10.300781 -6.960938 10.4375 -6.160156 10.4375 -5.234375 C 10.4375 -4.503906 10.273438 -3.820312 9.953125 -3.1875 C 9.628906 -2.550781 9.203125 -1.992188 8.671875 -1.515625 C 8.140625 -1.046875 7.550781 -0.675781 6.90625 -0.40625 C 6.257812 -0.132812 5.609375 0 4.953125 0 L 0.296875 0 L 0.296875 -3.390625 L 3.578125 -3.390625 C 3.898438 -3.390625 4.257812 -3.460938 4.65625 -3.609375 C 5.050781 -3.753906 5.390625 -3.957031 5.671875 -4.21875 C 5.953125 -4.488281 6.09375 -4.804688 6.09375 -5.171875 C 6.09375 -5.753906 5.960938 -6.257812 5.703125 -6.6875 C 5.453125 -7.113281 5.125 -7.5 4.71875 -7.84375 C 4.320312 -8.1875 3.894531 -8.53125 3.4375 -8.875 C 2.988281 -9.21875 2.5625 -9.585938 2.15625 -9.984375 C 1.757812 -10.390625 1.429688 -10.859375 1.171875 -11.390625 C 0.921875 -11.929688 0.796875 -12.566406 0.796875 -13.296875 C 0.796875 -13.796875 0.878906 -14.363281 1.046875 -15 Z M 1.046875 -15 "/></g></g></g><g fill="#000000" fill-opacity="1"><g transform="translate(17.050329, 18.012872)"><g><path d="M 8.9375 -12.015625 C 8.0625 -12.015625 7.296875 -11.816406 6.640625 -11.421875 C 5.992188 -11.023438 5.488281 -10.484375 5.125 -9.796875 C 4.769531 -9.117188 4.59375 -8.34375 4.59375 -7.46875 C 4.59375 -6.664062 4.769531 -5.921875 5.125 -5.234375 C 5.488281 -4.554688 5.992188 -4.015625 6.640625 -3.609375 C 7.296875 -3.203125 8.0625 -3 8.9375 -3 C 9.832031 -3 10.601562 -3.175781 11.25 -3.53125 C 11.894531 -3.894531 12.394531 -4.410156 12.75 -5.078125 C 13.113281 -5.753906 13.296875 -6.550781 13.296875 -7.46875 C 13.296875 -8.351562 13.113281 -9.132812 12.75 -9.8125 C 12.394531 -10.5 11.890625 -11.035156 11.234375 -11.421875 C 10.585938 -11.816406 9.820312 -12.015625 8.9375 -12.015625 Z M 8.9375 0.390625 C 7.800781 0.390625 6.710938 0.222656 5.671875 -0.109375 C 4.628906 -0.441406 3.703125 -0.9375 2.890625 -1.59375 C 2.078125 -2.257812 1.4375 -3.082031 0.96875 -4.0625 C 0.5 -5.039062 0.265625 -6.175781 0.265625 -7.46875 C 0.265625 -8.738281 0.5 -9.863281 0.96875 -10.84375 C 1.4375 -11.832031 2.078125 -12.664062 2.890625 -13.34375 C 3.703125 -14.019531 4.628906 -14.53125 5.671875 -14.875 C 6.710938 -15.226562 7.800781 -15.40625 8.9375 -15.40625 C 10.09375 -15.40625 11.191406 -15.226562 12.234375 -14.875 C 13.273438 -14.53125 14.203125 -14.019531 15.015625 -13.34375 C 15.828125 -12.664062 16.460938 -11.832031 16.921875 -10.84375 C 17.390625 -9.863281 17.625 -8.738281 17.625 -7.46875 C 17.625 -6.175781 17.390625 -5.035156 16.921875 -4.046875 C 16.460938 -3.066406 15.820312 -2.25 15 -1.59375 C 14.1875 -0.9375 13.257812 -0.441406 12.21875 -0.109375 C 11.1875 0.222656 10.09375 0.390625 8.9375 0.390625 Z M 8.9375 0.390625 "/></g></g></g><g fill="#000000" fill-opacity="1"><g transform="translate(34.929472, 18.012872)"><g><path d="M 6.046875 -15 L 13.03125 -15 L 13.03125 -11.609375 L 7.078125 -11.609375 C 6.640625 -11.609375 6.234375 -11.484375 5.859375 -11.234375 C 5.492188 -10.984375 5.203125 -10.648438 4.984375 -10.234375 C 4.773438 -9.816406 4.671875 -9.351562 4.671875 -8.84375 L 4.671875 -7.59375 L 13.015625 -7.59375 L 13.03125 -4.203125 L 4.671875 -4.203125 L 4.671875 3.390625 L 0.5625 3.390625 L 0.5625 -9.078125 C 0.5625 -9.835938 0.695312 -10.570312 0.96875 -11.28125 C 1.238281 -11.988281 1.617188 -12.625 2.109375 -13.1875 C 2.609375 -13.75 3.191406 -14.191406 3.859375 -14.515625 C 4.523438 -14.835938 5.253906 -15 6.046875 -15 Z M 6.046875 -15 "/></g></g></g><g fill="#000000" fill-opacity="1"><g transform="translate(48.4047, 18.012872)"><g><path d="M 0.5625 -15 L 4.671875 -15 L 4.671875 0 L 0.5625 0 Z M 0.5625 -15 "/></g></g></g><g fill="#000000" fill-opacity="1"><g transform="translate(5.586733, 26.143664)"><g><path d="M 2.453125 0.078125 C 2.066406 0.078125 1.722656 0.03125 1.421875 -0.0625 C 1.128906 -0.15625 0.878906 -0.28125 0.671875 -0.4375 C 0.472656 -0.59375 0.320312 -0.757812 0.21875 -0.9375 L 0.828125 -1.671875 L 0.921875 -1.671875 C 1.085938 -1.421875 1.296875 -1.222656 1.546875 -1.078125 C 1.804688 -0.929688 2.109375 -0.859375 2.453125 -0.859375 C 2.742188 -0.859375 2.960938 -0.921875 3.109375 -1.046875 C 3.253906 -1.171875 3.328125 -1.34375 3.328125 -1.5625 C 3.328125 -1.6875 3.300781 -1.789062 3.25 -1.875 C 3.207031 -1.96875 3.128906 -2.046875 3.015625 -2.109375 C 2.910156 -2.171875 2.765625 -2.226562 2.578125 -2.28125 L 1.859375 -2.4375 C 1.367188 -2.550781 1 -2.738281 0.75 -3 C 0.507812 -3.269531 0.390625 -3.613281 0.390625 -4.03125 C 0.390625 -4.34375 0.46875 -4.613281 0.625 -4.84375 C 0.78125 -5.082031 1.003906 -5.265625 1.296875 -5.390625 C 1.597656 -5.523438 1.957031 -5.59375 2.375 -5.59375 C 2.800781 -5.59375 3.164062 -5.535156 3.46875 -5.421875 C 3.769531 -5.316406 4.023438 -5.148438 4.234375 -4.921875 L 3.703125 -4.171875 L 3.609375 -4.171875 C 3.453125 -4.335938 3.269531 -4.460938 3.0625 -4.546875 C 2.863281 -4.628906 2.632812 -4.671875 2.375 -4.671875 C 2.070312 -4.671875 1.84375 -4.613281 1.6875 -4.5 C 1.53125 -4.394531 1.453125 -4.253906 1.453125 -4.078125 C 1.453125 -3.898438 1.503906 -3.757812 1.609375 -3.65625 C 1.722656 -3.550781 1.914062 -3.46875 2.1875 -3.40625 L 2.921875 -3.265625 C 3.453125 -3.148438 3.835938 -2.957031 4.078125 -2.6875 C 4.316406 -2.414062 4.4375 -2.0625 4.4375 -1.625 C 4.4375 -1.28125 4.363281 -0.976562 4.21875 -0.71875 C 4.070312 -0.46875 3.847656 -0.269531 3.546875 -0.125 C 3.242188 0.0078125 2.878906 0.078125 2.453125 0.078125 Z M 2.453125 0.078125 "/></g></g><g transform="translate(10.334788, 26.143664)"><g><path d="M 4.421875 -5.515625 L 4.421875 -4.609375 L 2.828125 -4.609375 L 2.828125 0 L 1.75 0 L 1.75 -4.609375 L 0.15625 -4.609375 L 0.15625 -5.515625 Z M 4.421875 -5.515625 "/></g></g><g transform="translate(14.91651, 26.143664)"><g><path d="M 2.921875 0.078125 C 2.160156 0.078125 1.597656 -0.0976562 1.234375 -0.453125 C 0.867188 -0.816406 0.6875 -1.351562 0.6875 -2.0625 L 0.6875 -5.515625 L 1.75 -5.515625 L 1.75 -2.078125 C 1.75 -1.671875 1.84375 -1.367188 2.03125 -1.171875 C 2.226562 -0.972656 2.523438 -0.875 2.921875 -0.875 C 3.703125 -0.875 4.09375 -1.273438 4.09375 -2.078125 L 4.09375 -5.515625 L 5.171875 -5.515625 L 5.171875 -2.0625 C 5.171875 -1.351562 4.984375 -0.816406 4.609375 -0.453125 C 4.242188 -0.0976562 3.679688 0.078125 2.921875 0.078125 Z M 2.921875 0.078125 "/></g></g><g transform="translate(20.775973, 26.143664)"><g><path d="M 2.703125 -5.515625 C 3.597656 -5.515625 4.28125 -5.28125 4.75 -4.8125 C 5.226562 -4.351562 5.46875 -3.671875 5.46875 -2.765625 C 5.46875 -1.847656 5.226562 -1.15625 4.75 -0.6875 C 4.28125 -0.226562 3.597656 0 2.703125 0 L 0.71875 0 L 0.71875 -5.515625 Z M 2.640625 -0.921875 C 3.210938 -0.921875 3.640625 -1.066406 3.921875 -1.359375 C 4.203125 -1.648438 4.34375 -2.117188 4.34375 -2.765625 C 4.34375 -3.410156 4.203125 -3.878906 3.921875 -4.171875 C 3.640625 -4.460938 3.210938 -4.609375 2.640625 -4.609375 L 1.8125 -4.609375 L 1.8125 -0.921875 Z M 2.640625 -0.921875 "/></g></g><g transform="translate(26.68458, 26.143664)"><g><path d="M 1.8125 0 L 0.71875 0 L 0.71875 -5.515625 L 1.8125 -5.515625 Z M 1.8125 0 "/></g></g><g transform="translate(29.21738, 26.143664)"><g><path d="M 3.015625 0.078125 C 2.503906 0.078125 2.054688 -0.0234375 1.671875 -0.234375 C 1.285156 -0.441406 0.984375 -0.753906 0.765625 -1.171875 C 0.546875 -1.597656 0.4375 -2.128906 0.4375 -2.765625 C 0.4375 -3.390625 0.546875 -3.914062 0.765625 -4.34375 C 0.984375 -4.769531 1.285156 -5.082031 1.671875 -5.28125 C 2.054688 -5.488281 2.503906 -5.59375 3.015625 -5.59375 C 3.515625 -5.59375 3.957031 -5.488281 4.34375 -5.28125 C 4.726562 -5.082031 5.03125 -4.769531 5.25 -4.34375 C 5.46875 -3.914062 5.578125 -3.390625 5.578125 -2.765625 C 5.578125 -2.128906 5.46875 -1.597656 5.25 -1.171875 C 5.03125 -0.742188 4.726562 -0.425781 4.34375 -0.21875 C 3.957031 -0.0195312 3.515625 0.078125 3.015625 0.078125 Z M 3.015625 -0.875 C 3.484375 -0.875 3.835938 -1.019531 4.078125 -1.3125 C 4.328125 -1.613281 4.453125 -2.097656 4.453125 -2.765625 C 4.453125 -3.421875 4.328125 -3.898438 4.078125 -4.203125 C 3.835938 -4.503906 3.484375 -4.65625 3.015625 -4.65625 C 2.535156 -4.65625 2.171875 -4.503906 1.921875 -4.203125 C 1.679688 -3.898438 1.5625 -3.421875 1.5625 -2.765625 C 1.5625 -2.097656 1.679688 -1.613281 1.921875 -1.3125 C 2.171875 -1.019531 2.535156 -0.875 3.015625 -0.875 Z M 3.015625 -0.875 "/></g></g></g></svg>